<svg xmlns="http://www.w3.org/2000/svg" viewBox="0 0 611.993 611.993">
    <path d="M562.52 70.476C532.246 40.523 488.62 21.32 442.72 21.32c-27.022 0-52.412 6.182-76.823 18.558-24.42 12.368-44.274 29.292-59.9 50.78-15.625-21.488-35.48-38.412-59.898-50.78C221.684 27.5 196.294 21.32 169.28 21.32c-45.9 0-89.52 19.203-119.798 49.155C19.21 100.422 0 144.042 0 189.947c0 31.57 6.708 62.218 14.973 85.29 4.104 11.437 10.306 23.833 18.556 36.46 8.347 12.77 15.95 23.437 22.458 31.895 6.514 8.467 15.792 19.05 28.32 31.252 12.536 12.215 22.787 21.812 30.273 28.646 7.487 6.842 18.877 16.94 33.857 29.953 17.244 14.98 29.543 26.133 37.44 33.203 7.728 6.924 18.882 17.576 33.528 31.578 29.626 28.312 51.363 54.404 71.94 84.31 3.84 5.583 8.793 8.138 14.647 8.138 6.188 0 11.542-2.5 15.3-8.14 13.174-19.757 28.403-39.966 46.224-59.897 17.987-20.11 32.96-35.717 44.926-46.877 12.126-11.307 29.557-27.084 52.086-47.197 13.93-12.444 25.063-21.81 32.557-28.645 7.486-6.84 17.25-16.28 29.3-28.32 12.043-12.05 21.563-22.404 28.32-30.932 6.918-8.723 14.224-19.273 22.46-31.898 16.827-25.786 24.195-46.203 30.272-74.87 3.027-14.307 4.556-28.975 4.556-43.947.007-45.906-19.202-89.526-49.474-119.472zm10.416 152.673c-6.27 36.12-25.14 71.544-56.642 106.448-13.75 15.23-38.987 39.475-75.85 72.268-19.127 17.016-34.502 30.932-46.552 41.996-11.716 10.75-26.126 25.307-43.293 43.62-17.016 18.145-31.905 36.132-44.6 53.71-13.35-17.25-28.73-34.752-46.225-52.738-17.66-18.146-31.25-31.898-41.342-41.016-10.09-9.11-25.466-22.703-46.55-41.342l-22.46-19.855-20.508-18.556c-8.882-8.035-15.716-14.57-20.182-19.53-4.32-4.804-10.09-11.07-17.25-18.882s-12.667-14.666-16.28-20.182c-7.457-11.41-20.14-28.438-24.736-42.647L42.98 243.33c-5.458-16.847-7.16-34.18-7.16-53.383 0-36.46 13.02-67.71 39.064-93.428 26.37-26.043 57.62-39.065 94.4-39.065 25.716 0 49.48 6.833 71.295 20.834 21.812 13.992 38.625 32.445 49.48 55.66 3.146 6.737 8.466 10.092 15.952 10.092s13.27-3.125 16.605-10.09c10.993-22.995 26.695-41.67 48.502-55.663 21.806-14.002 45.896-20.835 71.613-20.835 36.786 0 68.038 13.02 94.08 38.738s39.064 56.968 39.064 93.754c-.01 11.39-1.073 22.445-2.94 33.202z"/>
</svg>
