<svg version="1" xmlns="http://www.w3.org/2000/svg" viewBox="0 0 700.000000 700.000000">
    <path d="M316.5 4.1c-4.4.5-11.1 1.4-15 2-3.8.6-9.7 1.5-13 1.9-3.3.4-7.8 1.3-10 1.9-4.3 1.2-18.8 4.7-24.5 6-1.9.5-4.6 1.3-6 1.9-1.4.5-5.2 1.8-8.5 2.8-3.3 1-6.4 2.2-7 2.6-.5.4-1.7.8-2.6.8-1 0-3 .6-4.6 1.4-3.1 1.5-7.1 3.3-15.3 6.8-5.6 2.3-21.3 10.2-33 16.5-3.6 2-9.8 5.7-13.8 8.4s-7.6 4.9-8.1 4.9c-.4 0-1.6.9-2.6 2-1.1 1.2-3.6 3.1-5.7 4.2-2.1 1.2-3.8 2.5-3.8 2.9 0 .5-2 2-4.4 3.4-2.4 1.4-5 3.3-5.8 4.2-.7.9-4.4 4.1-8.3 7.1-9.4 7.4-28.3 26.1-35.3 34.7-3.1 3.8-7.2 8.8-9.3 11-2 2.2-4.7 5.6-6 7.7-1.3 2-4.5 6.4-7.1 9.7-2.7 3.4-4.8 6.3-4.8 6.6 0 .3-2.2 3.7-4.9 7.7-5 7.6-13.4 22-15.8 27.3-.7 1.6-1.7 3.7-2.3 4.5-2 3.3-9 19.1-9 20.4 0 .7-.7 1.9-1.5 2.6-.8.7-1.5 2.2-1.5 3.4 0 1.1-.7 3-1.5 4-.8 1.1-1.5 3-1.5 4.2 0 1.3-.4 2.6-1 2.9-.5.3-1 1.6-1 2.9 0 1.2-.7 3.1-1.5 4.2-.8 1-1.5 3.1-1.5 4.5s-.7 3.4-1.5 4.5c-.8 1-1.5 2.9-1.5 4.2 0 1.3-.7 4.7-1.6 7.5-2.9 9.8-5.4 20.6-6.4 28.2-.4 3.3-1.2 8.9-1.8 12.5-.6 3.6-1.5 10.3-2.1 15.1-1.4 10.6-1.4 58.5-.1 67.6 2.1 15.4 3.2 23.1 3.9 28.8.4 3.3 1.3 7.3 1.9 8.8.7 1.6 1.2 4.3 1.2 6.2 0 1.9.4 3.6.9 3.9.5.4 1.2 2.9 1.6 5.6.4 2.7 1.1 5.2 1.6 5.6.5.3.9 1.9.9 3.5 0 1.7.5 4 1.2 5.2.6 1.2 1.5 3.5 1.9 5.2 1 4 5.6 16.6 6.9 18.7.5 1 1 2.6 1 3.6s.4 2.2.9 2.7c.5.6 2.1 3.9 3.6 7.5 4.1 10 12.2 25.8 19.4 38.2 27.9 47.5 69.4 89.6 117.3 119 15.5 9.5 49.6 26.8 52.8 26.8.5 0 2.6.7 4.7 1.6 6.1 2.7 7.4 3.1 15.7 5.9 14.3 4.6 34.7 9.8 45.6 11.6 26.5 4.3 35.9 5.1 62.5 5.1 26.3 0 43.4-1.4 64-5.2 19-3.5 45.7-11 60.6-17 2.7-1.1 7.3-3 10.2-4.1 7.8-3.2 14-5.9 15.7-7 .8-.5 2.2-1.2 3-1.5 1.7-.6 1.7-.6 13.5-6.9 5-2.6 14.2-8.2 20.5-12.4 6.3-4.2 12-7.8 12.5-8 1.1-.4 6.1-4.2 19-14.3 10.5-8.3 42.2-39.4 49.1-48.3 3-3.9 7.3-9.3 9.5-12 7.2-9.1 24.1-35 26.8-41.2.5-1.1 1.5-2.4 2-2.8.6-.3 1.1-1.5 1.1-2.6 0-1 .4-1.9.8-1.9.5 0 1.6-1.9 2.6-4.3.9-2.3 2.1-4.9 2.7-5.7.5-.8 1.2-2.2 1.5-3 .9-2.4 5.4-12.2 7-15.3.8-1.6 1.4-3.5 1.4-4.3 0-.8.4-2.2 1-3.2 1.6-3 5.4-13 7-18.7.5-1.7 1.6-5.5 2.5-8.5 10.2-34.9 13.7-60.5 13.7-99 0-18.6-.4-30.2-1.6-39-2.6-20.1-5.4-36-8.1-45-.7-2.5-2.5-9-4-14.5s-3.1-10.9-3.6-12c-.4-1.1-1.8-4.9-3-8.5-1.2-3.6-2.5-6.9-3-7.4-.5-.6-.9-1.7-.9-2.5s-1.2-3.9-2.6-7c-1.4-3.1-3.3-7.2-4.1-9.1-.8-1.9-1.9-4.2-2.3-5-1.8-3.1-7-13.7-7-14.3 0-.3-1.7-3.2-3.8-6.4-2.1-3.2-4.2-6.5-4.6-7.3-1.7-3.7-15.8-25.1-18.8-28.5-.9-1.1-2.7-3.4-4-5.2-7.8-10.6-13.1-16.6-28.8-32.3-9.6-9.6-21.3-20.6-26-24.3-10.4-8.4-28.3-21.7-29.2-21.7-.4 0-3.5-1.9-7-4.2-8.5-5.8-15.5-9.6-33.8-18.4-8.5-4.1-16.8-8.1-18.3-8.9-1.6-.8-3.7-1.5-4.7-1.5s-2.1-.4-2.5-.9c-.3-.5-3.8-1.9-7.8-3.2-3.9-1.2-7.6-2.4-8.2-2.8-1-.6-7.4-2.5-13.5-4.1-1.9-.5-6.4-1.6-10-2.5C418.7 9 418.4 9 399.5 6.2c-20.9-3.2-63.2-4.2-83-2.1zm68 13.9c29.7 3.7 49.7 8.1 71.5 15.5 19.4 6.7 21.7 7.6 42 17.3 34.5 16.4 70.9 43.9 99.7 75.4 7.3 8 21.5 25.6 25.2 31.3 1.4 2.2 2.8 4.2 3.2 4.5 3.5 3.1 26.6 45.3 32 58.5.4 1.1 2.2 5.4 3.8 9.5 1.7 4.1 3.1 8.2 3.1 9.2 0 .9.4 1.9.9 2.2.5.3 1.2 2.2 1.6 4.2.3 2 1 4.4 1.4 5.3 1.1 2.1 3.6 10.8 5.6 19.6 5.7 24.3 8.6 44.6 8.8 62l.2 10-30.4.3c-20.4.1-30.8-.1-31.5-.8-.6-.6-1.6-7.7-2.3-15.8-.6-8.1-1.9-18.5-2.8-23.2-.9-4.7-1.8-9.9-2.1-11.5-.8-5.1-7.1-26.5-9.9-33.5-3.4-8.8-7.8-19.5-8.5-20.9-.4-.9-1.9-3.9-3.2-6.6-25-51.5-70.6-97.2-121.8-122.2-19.8-9.7-41.6-17.7-58-21.2-26.3-5.7-34.5-6.6-63-6.6-31.7 0-46.6 2-77.5 10.5-6.5 1.8-29 10.3-34.4 13-10.4 5.1-13.8 6.9-20.9 10.9-10.7 5.9-10.3 5.6-19.7 12-26 17.4-52.5 44-70.8 70.9-3.2 4.6-5.7 8.5-5.7 8.7 0 .2-2.4 4.4-5.3 9.2-5.8 9.6-11.8 21.9-16.1 32.8-3.8 9.5-7.2 19.1-8.6 24-2.8 9.9-4.2 15.5-4.9 19.5-.5 2.5-1.3 6.7-1.9 9.5-1.6 7.3-3.3 20.6-4.1 31.5l-.6 9.5-31.3.3c-26.1.2-31.3 0-31.8-1.2-.5-1.3-.1-6.4 2.6-32.6 1.5-15.3 4.9-32.4 9.4-48 3-10.2 6.9-22.6 7.7-24.5.4-1.1 2.2-5.6 4-10 1.7-4.4 4.7-11.2 6.5-15.1 1.8-3.9 3.8-8.2 4.4-9.5 1.1-2.6 5.6-10.9 10.9-20.3 4.2-7.4 11.5-18.4 20.4-30.6 21.8-29.7 54.1-60.1 85.2-80.1 15.3-9.9 17-10.8 31.6-18.3 34.4-17.6 74-29.7 110.4-33.7 5-.6 12.4-1.4 16.5-1.9 9.7-1.1 46.9-.5 58.5 1zm-42 107.5v31l-13 1.7c-19.5 2.5-28.8 4.5-40.2 8.7l-5.3 1.9-2-2.5c-1.1-1.4-2-3.3-2-4.2 0-1-.4-2.1-.9-2.7-.5-.5-2.3-4.5-4.1-8.9-1.7-4.4-3.8-9.4-4.5-11-.8-1.7-2.1-4.8-3-7-.9-2.2-2-4.8-2.5-5.7-.6-1-1-2.2-1-2.8 0-.6-1.1-3.3-2.5-6.2-3.2-6.5-3.1-7.3.3-8.6 22.7-8.4 56.1-15.2 72.7-14.9l8 .2v31zm40-30c22.6 3.5 42.3 8.3 55.8 13.6 2.8 1.2 3.4 3.5 1.8 6.7-1.2 2.3-3.4 7.4-7.6 17.7-.9 2.2-2.2 5.3-3 7-3.4 7.7-9.5 23.1-9.5 23.9 0 .5-.7 1.7-1.5 2.6-1.5 1.6-1.9 1.6-7.3-.3-3.1-1-7.3-2.3-9.2-2.8-13.8-3.3-21.9-4.8-31.5-5.9-6-.6-11.4-1.5-11.9-2-.6-.6-1.1-45.5-.6-61.3 0-1.2 13.9-.8 24.5.8zm-132.5 31c1.7 4.4 3.5 8.7 4 9.6.4.8 2.2 5.1 4 9.5 1.7 4.3 3.8 9.2 4.5 10.9.8 1.6 2.1 4.8 3 7 .9 2.2 2 4.8 2.5 5.7 2.2 4 1.2 5.4-7.2 9.7-11.3 5.8-25.9 15.5-34.5 22.9-4 3.4-7.5 6.2-7.9 6.2-1.5 0-43.4-42.5-43.4-44 0-1.8 11.2-11.6 24.2-21.2 17.2-12.8 44.3-27.6 46.5-25.5.6.7 2.5 4.8 4.3 9.2zm230.3 2.4c5.3 3 6.2 3.6 14.7 9.5 16.6 11.6 30 23 30 25.4 0 2.7-42.5 44.6-44.1 43.6-.8-.4-4.3-3.3-7.9-6.4-8-6.8-21.5-15.8-32.8-21.8-4.6-2.4-8.6-5-8.8-5.6-.2-.6.7-3.5 2.1-6.4 1.4-2.8 2.5-5.6 2.5-6.1s.6-2.2 1.4-3.8c.8-1.5 2.2-4.6 3.1-6.8 2.3-5.8 3.5-8.6 5-12 .7-1.7 2.8-6.6 4.5-11 5-12.5 4.3-12.3 16.8-5.8 5.9 3.1 12 6.3 13.5 7.2zM384.1 174c13.2 2.8 26.9 6.7 28.3 8.1.6.5 1.7.9 2.6.9.9 0 7.4 2.9 14.6 6.4 37.9 18.7 70.2 53 86 91.1.6 1.6 1.6 4.1 2.2 5.5.6 1.4 1.8 5 2.7 8 1 3 2.2 6.6 2.7 8 1.9 4.7 7.1 38.7 6.2 40.1-.3.5-14 .9-30.4.9-34.5 0-31.1 1.2-32.9-11.8-.6-4.5-1.5-9.1-2.1-10.2-.5-1-1-2.9-1-4.2 0-1.3-.4-2.8-.8-3.4-.5-.5-1.7-3.2-2.7-5.9-10.8-30.1-40.5-58.5-71.5-68.2-15.9-5-19.2-5.5-37-5.6-15-.1-18.8.2-26.5 2.2-10.3 2.6-25.2 8.3-30.7 11.7-2.1 1.3-4 2.4-4.3 2.4-1 0-15.6 11.1-20.2 15.3-18 16.6-34.4 49.9-35.5 72.2l-.3 5h-62l.3-8.5c.2-4.7 1-11.2 1.7-14.5.8-3.3 1.6-7.4 1.8-9 .7-3.9 2.6-11.5 3.7-14 .5-1.1 1.1-2.9 1.4-4 3.5-13.7 19.6-42.6 31.7-57 7.1-8.5 21.7-22.3 29.7-28.2 16.4-12.1 38.2-23.7 50.7-26.9 1.1-.3 2.9-.9 4-1.4 6.3-2.5 27.6-6.9 36-7.4 14.4-.9 42.3.4 51.6 2.4zm-197.4 22.2c11.7 11.7 21.3 21.7 21.3 22.2s-1.5 2.5-3.2 4.5c-9.5 10.6-19.3 25.1-25.9 38-4.5 8.6-5.4 9.2-10.6 6.7-1.5-.8-3.9-1.9-5.3-2.4-1.4-.6-4.1-1.7-6-2.5-25.6-10.7-38-15.7-38.8-15.7-3.2 0-1-5.9 8.4-22.8 6.4-11.5 18.3-28.6 26.5-38.2 3-3.6 6.4-7.5 7.4-8.8 1.1-1.2 2.6-2.2 3.5-2.2.8 0 11 9.6 22.7 21.2zm354-18c7.2 7.8 21.2 26.3 26.8 35.6 4.8 8 6.5 10.9 11.2 19.6 2.9 5.5 5.3 10.6 5.3 11.3 0 .7-1.2 1.8-2.7 2.3-1.6.6-3.7 1.5-4.8 2-12 5.5-48.8 20.1-49.8 19.7-.7-.3-2.5-2.7-3.9-5.3-3.1-6-6.3-11.9-8.9-16.2-2.4-4.2-15-20.9-18.3-24.4-1.4-1.5-2.6-3.3-2.6-4 0-1.5 42-43.8 43.5-43.8.6 0 2.5 1.5 4.2 3.2zM375.5 250c3.9 1.2 8.1 2.4 9.4 2.7 1.3.3 5.6 2.1 9.5 4 21.6 10.5 39.7 28.5 49.4 49.3 3.8 8.1 8.2 21.4 8.2 24.9 0 1.4.4 4.1.9 5.9 2 6.7 10.2 6.2-102.5 6.2H248v-5c0-11.9 6.9-30.9 16.8-46 4.8-7.2 20.2-22.5 27.5-27.4 11.5-7.5 21.6-11.9 34.7-15 10-2.4 11.5-2.5 27-2.1 11 .3 16.2.9 21.5 2.5zm-257.7 11.5c2.9 1.4 5.6 2.5 6.2 2.5.6 0 1.8.4 2.8 1 .9.5 3.5 1.6 5.7 2.5 2.2.9 5.4 2.2 7 3 1.7.7 8.8 3.7 15.8 6.6 7 2.8 13 5.5 13.2 5.9.2.4-.6 3.8-1.9 7.6-4.7 13.9-7.1 24.9-8.7 40.4-.5 5.8-1.4 10.8-1.8 11.3-.4.4-14.4.6-31.2.5l-30.4-.3-.3-6c-.4-6.1 1.7-22.7 4.4-36.5 4.1-20.4 10.7-41 13.2-41 .5 0 3.2 1.1 6 2.5zm475.9 7.5c3.2 9.5 4.7 14.9 6.2 22.5.4 2.2 1.3 5.8 1.9 8 2.2 8.2 5.5 39.3 4.4 42.2-.3 1-7.5 1.3-31.3 1.3h-30.8l-.5-3.3c-.3-1.7-1-7.7-1.6-13.2-1.5-12.7-4.7-27.3-7.6-34.5-.8-1.9-1.6-4.8-1.7-6.4-.2-3.4-.1-3.4 14.3-9.4 5.2-2.2 9.9-4.2 25-10.5 8.5-3.6 16.2-6.5 17-6.4.9.1 2.7 3.8 4.7 9.7zM74.1 357.9l5.6.1.6 10.2c1.2 20.6 6 45.4 12.8 65.8 2.4 7.4 6.7 19 7.8 21.5 12.9 27.7 18.6 37.6 33.2 57.2 41.8 56 104.1 93.5 173.9 104.7 11.5 1.9 32.8 3.6 43 3.6 18.6-.1 51.9-4.5 69-9.3 6.7-1.8 26.7-8.4 29.5-9.7 1.1-.5 4.3-1.9 7-3 9.7-4.2 20.1-9.4 27.5-13.8 4.1-2.5 8.4-5 9.5-5.6 12.6-7.1 33.9-24.2 49.2-39.7 24.4-24.7 42.4-51.5 56.2-83.4 1.2-2.8 2.5-5.7 2.9-6.5.7-1.2 4.2-12 10.5-32 .6-1.9 1.4-5.3 1.8-7.5.4-2.2 1.5-8.1 2.4-13 1-5 2.2-15.6 2.9-23.7.6-8 1.4-14.9 1.7-15.3 1.2-1.1 61-.8 62.2.4 1.4 1.4-1.7 38.1-4.3 50.1-.6 3-1.8 8.9-2.7 13-1.6 7.9-2.2 10.4-4.6 18.5-3.7 12.6-5.2 17.1-5.9 18-.4.5-.8 1.7-.8 2.7 0 .9-.6 3.2-1.4 5-.8 1.8-2.1 4.9-3 7-.9 2-1.6 3.9-1.6 4.3 0 1.6-12.6 27.5-17 35-1.6 2.7-3.4 5.9-3.9 7-.5 1.1-2.5 4.4-4.5 7.4-2 2.9-3.6 5.5-3.6 5.7 0 .7-16.1 22.6-21.3 28.9-12.1 14.7-32 34.7-47.2 47.4-8.9 7.4-40.2 29.1-42 29.1-.3 0-2.4 1.1-4.6 2.5-2.2 1.4-9 5.1-15.2 8.1-6.2 3-12 6-13 6.5-1.8 1-8.7 3.8-17.2 7.1-8.2 3.1-24.6 8.4-37 11.8-1.6.4-6.4 1.5-10.5 2.3-4.1.9-10 2.1-13 2.7-5.6 1.2-10.8 1.9-32.5 4-13.7 1.4-52.3.8-65-1-28.3-3.9-54.7-10-70-16-1.1-.4-4.2-1.5-7-2.5-2.7-.9-5.9-2-7-2.5-1.1-.5-3.8-1.6-6-2.5-6.1-2.6-33.4-16.1-38.7-19.2-43.9-25.7-84-63.5-111-104.8-3.6-5.5-7.6-11.8-8.8-14-1.2-2.2-3.4-6.3-5-9-5.1-8.7-14-27.7-18.9-40-.5-1.1-1.6-3.7-2.5-5.8-.9-2.1-1.6-4.4-1.6-5.1 0-.8-.7-2.7-1.5-4.2-.8-1.6-1.5-3.7-1.5-4.6 0-.9-.4-2.7-.9-4-1-2.4-2.8-9-5.4-19.3-3.8-15-5.2-22.9-6.6-36.5-3-28.2-3.3-32.1-2.3-33.3 1-1.1 11.6-1.3 57.3-.8zm82 .8c.5.5 1.4 5.8 1.9 11.8.6 6.1 1.5 12.3 2 13.9.6 1.6 1 3.9 1 5.1 0 1.3.7 4.7 1.6 7.6 4.2 14.5 4.9 16.5 5.8 17.7.6.9.5 1.7-.5 2.7-1.3 1.2-41.6 18.5-43.2 18.5-.3 0-3.2 1.2-6.3 2.7-6.9 3.2-8.2 2.7-10.7-4.8-2-5.7-2.4-7.1-5.5-18.4-5.9-21-10.3-56.6-7.2-57.7 2.3-.7 60.3.1 61.1.9zm373 0c.8.8-2.2 23.9-4.1 32.3-2 8.7-3.6 14-4.6 15-.7.7-57.7.9-170.3.8l-169.2-.3-1.4-2.5c-4.6-8.7-10.1-44-7-45.7 1.8-1 355.6-.6 356.6.4zm76.3-.7c1.1 0 .1 22.5-1.4 31.1-2.3 13.4-4.6 22.9-9 38.4-2.2 7.6-4.4 12.7-5.7 13.2-.8.3-6-1.3-11.6-3.7-5.6-2.3-11.8-4.9-13.7-5.7-1.9-.8-4.3-1.8-5.2-2.3-1-.6-2.2-1-2.7-1s-3.8-1.3-7.3-2.9c-3.5-1.6-8.5-3.7-11.1-4.6-2.7-1-5.1-2.4-5.3-3-.3-.6.3-3.4 1.2-6.1 3.3-9.5 6.4-22.5 7.4-30.9 2.2-17.7 2.9-21.8 3.8-22.4.6-.3 14.2-.5 30.4-.4 16.1.2 29.7.3 30.2.3zm-91.8 64.5c1.2 3-16.8 33-25.4 42.3l-3.9 4.2H216.2l-3.3-3.8c-5.8-6.3-15.4-20.3-19.9-28.7-2.3-4.4-4.9-9-5.7-10.3-3.4-5.5-13.9-5.2 162.7-5.2 142.7 0 163.1.2 163.6 1.5zm-337 13.2c11.3 20.1 18.7 31.2 27.7 41.3 2 2.3 3.7 4.5 3.7 4.9 0 .3-9.9 10.5-22.1 22.6l-22 22-5.1-5.5c-6.5-7-19.9-25-26.8-36-7.5-12-15.9-28.5-15.1-29.8.3-.6 6.2-3.4 13.1-6.2 6.9-2.9 14.9-6.3 17.7-7.6 2.9-1.3 6.4-2.6 7.8-3 1.4-.3 2.8-1 3.1-1.5.3-.5 1.3-.9 2.2-1 .9 0 3.7-1.1 6.2-2.4 2.5-1.2 5-2.3 5.7-2.4.7-.1 2.4 2 3.9 4.6zm356.6-2.3c2.9 1.3 11.6 5 19.3 8.1 15.7 6.4 16.1 6.6 22.7 9.4 2.6 1.2 5.1 2.1 5.6 2.1s1.5.7 2.2 1.5c1.1 1.3.3 3.4-4.5 12.7-10.3 20-23.2 38.9-35.8 52.3l-6.5 7-21.6-21.5c-11.9-11.8-21.6-22.1-21.6-23 0-.8 3.4-5.5 7.5-10.5 8.3-9.9 16.2-22.2 23.5-36.4 1.1-2.3 2.5-4.1 3-4.1s3.3 1.1 6.2 2.4zM469 484c0 1.5-3.5 4.4-15.2 12.6-19.4 13.6-43.6 24.6-62.8 28.4-13 2.6-32.6 5-41.1 5-9 0-22.8-1.6-36.4-4.1-7.3-1.4-25.6-6.8-26.9-8-.6-.5-1.6-.9-2.3-.9-2.2 0-18.2-8-27.8-13.8-11.5-7.1-24.5-17-24.5-18.8 0-1.2 18.6-1.4 118.5-1.4 75.1 0 118.5.4 118.5 1zm-243.9 13.4c6.2 5.6 20.1 15.5 27.1 19.4 2.9 1.6 7.8 4.3 10.8 6 3 1.7 5.6 3.5 5.8 4.1.3.9-10.7 28.6-17.3 43.6-3.5 8-4.5 10.4-4.5 11.3 0 3-4.3 1.8-15.1-3.9-6.3-3.3-13-7.1-14.9-8.3-1.9-1.3-6.2-4-9.5-6.2-11.4-7.3-32.5-24.7-32.5-26.7 0-1.7 42.2-43.7 43.8-43.7.8 0 3.6 2 6.3 4.4zm279.7 17.1c12.4 12.6 20.9 22 20.6 22.7-.8 1.8-14.1 13.1-23.8 20.2-10.2 7.5-25.5 16.9-36.9 22.5-7.1 3.5-9 4.1-10.2 3.1-.8-.7-1.5-1.7-1.5-2.2 0-.9-1-3.3-4.5-11.3-.7-1.7-3.2-7.7-5.5-13.5-4.2-10.6-4.8-11.8-9.5-22.4-1.4-3.2-2.4-6.4-2.2-7 .3-.6 3.6-2.6 7.3-4.5 12.4-6.2 28.6-17.2 39.4-26.9 1.3-1.2 3.2-2.2 4-2.2.9 0 11.1 9.7 22.8 21.5zm-200.3 23.4c6.1 1.6 15.7 3.4 21.5 4 5.8.7 12 1.4 13.8 1.7l3.2.5V606h-8.2c-10.3-.1-28.4-2.4-40.8-5.3-5.7-1.3-9-2.2-21.5-5.7-5.3-1.5-12-4.1-12.9-5-.6-.6-.5-1.8.1-3.2.6-1.3 3.7-8.6 6.8-16.3 3.1-7.7 6.3-15.4 7-17 .8-1.7 2.1-4.8 3-7 .9-2.2 2-4.8 2.5-5.7.6-1 1-2.5 1-3.3 0-.8.9-2.4 2-3.5 1.8-1.8 2.2-1.8 6.7-.4 2.6.8 9.8 2.7 15.8 4.3zm113.9-4.3c.9.8 1.6 2.2 1.6 3 0 .8.4 2.2 1 3.2.5.9 1.6 3.5 2.5 5.7.9 2.2 2.3 5.3 3.1 6.8.8 1.6 1.4 3.3 1.4 3.8 0 .4 1.1 3.2 2.4 6.1 6.5 14.4 10.8 25.8 10.3 27.3-.4.8-1.2 1.7-1.9 1.9-.7.2-2.9.9-4.8 1.5-9.6 3.4-29.8 8.4-44.8 11.1-9.5 1.7-30.3 2.5-31 1.3-.8-1.2-.7-60.1 0-60.9.3-.2 7-1.3 14.9-2.4 16.5-2.2 31.9-5.7 39.9-8.9 3.4-1.3 3.6-1.3 5.4.5z"/>
</svg>
