<svg xmlns="http://www.w3.org/2000/svg" viewBox="0 0 611.999 611.998">
    <path d="M596.583 15.454c-10.357-10.23-23.23-14.93-38.16-14.93-15.597 0-31.9 4.905-49.452 14.598-17.295 9.55-32.85 20.574-46.457 32.524h-.665c-2.655 2.322-10.953 10.287-25.22 24.553-14.27 14.27-26.216 26.222-35.844 36.51L112.4 26.405c-6.895-1.968-12.927.014-17.592 4.645l-48.12 47.79c-4.327 4.296-5.806 9.267-4.978 15.596.83 6.287 3.98 10.627 9.63 13.607L280.32 228.84 161.514 347.977l-95.91 3.32c-4.645.164-8.637 1.643-12.276 5.31L5.872 404.4c-4.312 4.34-6.64 9.288-5.643 16.26 1.656 6.968 5.31 11.612 11.617 13.603L128.99 483.05l48.786 117.148c2.42 5.812 6.634 9.62 13.607 11.28h3.313c4.977 0 9.296-1.66 12.942-5.312l47.456-47.457c3.653-3.645 5.494-7.965 5.643-12.275l3.32-95.91 118.807-118.807 121.128 228.99c2.988 5.643 7.32 8.793 13.607 9.62 6.328.837 11.27-1.315 15.596-5.642l47.456-47.457c4.978-4.977 6.945-10.697 4.978-17.586l-82.296-288.39 59.732-59.738c10.287-10.287 21.7-24.15 33.183-45.134 5.776-10.542 10.03-20.886 12.94-31.194 5.723-20.218 3.26-44.07-12.607-59.73zm-59.4 110.176l-67.04 67.372c-5.627 5.657-6.81 11.122-4.976 17.586l81.637 288.388-22.563 22.238L403.44 292.89c-2.98-5.643-7.3-8.963-12.94-9.62-6.302-1.332-11.612.324-16.264 4.976l-141.37 141.37c-2.987 2.986-4.644 6.973-5.643 11.95l-3.32 95.903-22.895 23.235-41.48-98.566c-1.33-4.646-4.553-8.185-9.63-10.288L51.34 411.03l23.23-22.895 95.577-3.654c5.643-.99 9.622-2.653 12.276-5.308l141.37-141.37c4.652-4.646 6.31-9.955 4.985-16.263-.666-5.644-3.986-9.955-9.63-12.943L90.83 87.47l22.23-22.238 288.39 81.637c6.463 1.832 11.95.665 17.586-4.978l28.545-28.54L473.8 87.47l11.278-11.286 1.33-.666c27.874-23.895 55.09-38.16 72.017-38.16 5.97 0 9.954 1.324 11.61 3.98 18.918 18.584-21.098 72.483-32.85 84.292z"/>
</svg>
