<svg xmlns="http://www.w3.org/2000/svg" viewBox="0 0 611.999 611.998">
    <path d="M601.444 535.668L433.67 368.273c1.505-2.26 2.64-6.032 3.766-10.93 17.72-29.785 28.682-62.207 32.052-96.52.772-7.914 1.126-16.214 1.126-24.128 0-26.012-4.343-52.088-13.19-77.666-11.51-33.244-30.098-62.65-55.426-88.227-90.422-91.306-242.656-91.097-332.91 0C39.072 101.11 18.7 136.436 8.01 176.748c-10.8 40.755-10.552 80.682 0 121.026 10.562 40.344 30.653 75.67 61.08 105.944 45.356 45.13 104.812 68.617 166.27 68.617 47.125 0 89.964-13.625 129.688-38.455l6.033-3.772L539.607 598.26c6.418 6.403 13.2 10.184 19.61 10.932 1.503.378 2.637.45 3.763.378 4.538-.298 8.696-1.464 12.066-3.395 4.552-2.598 9.427-6.41 14.71-11.687l7.537-7.545c5.276-5.276 9.09-10.158 11.688-14.703 1.93-3.37 3.017-7.914 3.017-13.577v-3.016c0-6.41-3.95-13.383-10.553-19.98zm-179.09-248.454c-8.848 33.13-25.634 62.206-50.52 87.09-36.194 36.195-84.832 56.553-136.478 56.553-50.897 0-99.22-20.687-136.863-56.552-73.957-70.458-73.65-202.19 0-273.34 37.2-35.93 85.588-56.93 136.863-56.93 53.914 0 98.892 19.11 136.478 56.93 24.62 24.773 41.85 53.536 50.52 86.714 8.67 33.177 8.872 66.308 0 99.534z"/>
</svg>
