<svg xmlns="http://www.w3.org/2000/svg" viewBox="0 0 700.236 700.236">
    <path d="M645.527 495.815l-75.61-43.69 63.833-38.014c10.262-4.943 13.438-18.723 7.602-28.854-5.94-10.375-18.764-12.563-28.498-6.89l-85.107 49.85-135.26-78.706 135.26-77.894 85.106 49.768c2.658 1.945 6.078 3.08 9.88 3.08 7.214 0 13.675-3.404 18.618-9.89 5.7-10.293 2.66-23.91-7.6-28.854l-63.833-38.015 75.61-43.688c9.854-5.674 13.243-18.4 7.6-28.856-5.388-10.05-18.722-13.535-28.878-7.618l-75.99 44.094-1.136-76.03c-.178-11.753-9.12-21.237-20.896-21.237-11.775 0-20.984 10.212-20.895 21.236l.754 100.346-134.496 77.894V155.788l84.728-48.31c9.89-5.592 14.2-18.642 8.357-28.854-5.934-10.375-18.115-13.456-28.498-7.62L371.59 107.48V21.236C371.59 9.483 362.09 0 350.315 0c-11.777 0-20.896 9.483-20.896 21.236v87.053l-66.87-37.286c-10.417-5.755-22.275-2.513-28.12 7.62-5.932 10.374-2.244 23.1 7.977 28.854l87.013 49.04v156.517l-137.542-79.353.762-98.077c1.143-11.023-8.738-21.237-20.515-21.237h-.762c-11.015 0-20.773 9.484-20.895 21.237l-.762 73.76L75.62 166.81c-10.344-5.997-23.11-2.43-28.5 7.54-5.642 10.536-2.724 22.938 7.603 28.936l74.846 43.283-65.355 39.15C53.96 290.663 50.758 304.442 57 314.574c4.02 6.566 9.873 9.89 17.856 9.89 4.174 0 7.65-1.055 11.015-3.08l85.49-50.5 137.162 78.625-137.162 79.434-85.49-50.578c-10.26-5.998-23.49-3.16-28.87 6.89-5.643 10.456-2.58 23.02 7.213 28.855l65.355 38.745-74.847 43.69c-10.3 5.997-13.64 18.642-7.602 28.936 4.224 7.134 9.882 10.62 17.858 10.62 1.897 0 5.698-1.135 10.643-3.08l74.083-42.554.762 73.76c.122 11.753 9.88 20.83 20.896 20.83h.763c11.777 0 20.604-9.807 20.515-21.64l-.762-97.997 137.542-78.624v155.707l-87.013 49.038c-10.383 5.837-14.015 18.563-7.976 28.857 4.222 7.214 9.88 10.7 17.855 10.7 3.802 0 7.303-.65 10.262-2.352l66.87-37.935v88.513c0 11.753 9.12 20.912 20.897 20.912s21.277-9.16 21.277-20.912V592.27l64.587 36.475c2.957 1.702 6.46 2.35 9.88 2.35 8.356 0 14.517-3.403 18.618-10.698 5.77-10.213 2.043-23.02-8.357-28.856l-84.727-47.497V385.985l134.497 77.894-.754 99.535c-.098 11.834 9.12 21.642 20.896 21.642s20.716-9.078 20.894-20.83l1.135-76.436 75.99 44.5c2.933 1.702 6.84 2.27 11.022 2.27 7.977 0 13.828-3.323 17.855-9.89 6.236-10.13 2.255-23.18-7.6-28.855z"/>
</svg>
