<svg xmlns="http://www.w3.org/2000/svg" viewBox="0 0 612.697 612.697">
    <path d="M593.235 286.7h-82.71c-10.774 0-19.114 8.38-19.114 19.13s8.34 19.424 19.114 19.424h82.71c10.773 0 19.114-8.675 19.114-19.425s-8.34-19.13-19.113-19.13zM464.305 175.86l58.378-59.09c7.45-7.56 7.726-18.83 0-27.135-7.23-7.71-19.157-8.007-27.105 0l-58.386 59.09c-7.443 7.562-7.992 19.128 0 27.135 7.302 7.267 19.855 7.34 27.113 0zM464.305 436.836c-8-8.007-20.158-8.007-27.113 0-7.992 6.97-7.488 19.647 0 27.136l58.386 58.348c5.91 7.34 21.204 7.34 27.105 0 8-6.895 7.993-19.128 0-27.06l-58.378-58.424zM306.178 121.665c10.773 0 19.46-8.378 19.46-19.128v-83.41C325.64 8.378 316.952 0 306.18 0s-19.114 8.378-19.114 19.128v83.408c0 10.75 8.34 19.13 19.114 19.13zM306.178 491.032c-10.773 0-19.114 8.378-19.114 19.13v83.407c0 10.082 8.34 19.127 19.114 19.127s19.46-9.045 19.46-19.796v-82.74c.002-10.75-8.687-19.128-19.46-19.128zM411.132 200.847c-29.02-28.99-63.946-43.743-104.954-43.743-41.015 0-76.113 14.605-105.302 43.743-28.848 28.84-43.446 63.983-43.446 104.983s14.428 76.29 43.446 105.28c29.02 29.062 64.287 43.446 105.302 43.446 41.007 0 76.105-14.605 104.954-43.446 29.188-29.138 43.787-64.28 43.787-105.28s-14.77-75.92-43.788-104.983zm-26.766 183.2c-21.545 21.502-47.605 32.326-78.188 32.326-30.234 0-56.302-10.824-77.848-32.325-21.545-21.575-32.325-47.672-32.325-78.218 0-30.25 10.78-56.272 32.325-77.848 21.545-21.575 47.613-32.325 77.848-32.325 30.583 0 56.643 10.75 78.188 32.325 21.553 21.575 32.326 47.598 32.326 77.848 0 30.546-10.773 56.643-32.326 78.218zM149.09 175.86c3.825 3.782 8.34 5.562 13.56 5.562 4.514 0 9.03-1.78 13.552-5.56 6.947-8.008 6.947-20.167 0-27.136l-59.083-59.09c-6.948-6.895-20.16-6.895-27.107 0-7.992 8.007-7.488 19.647 0 27.136l59.076 59.09zM148.4 436.836L90.014 495.26c-7.992 7.932-7.992 19.794 0 27.802 7.295 7.266 19.81 7.266 27.106 0l59.083-59.09c7.488-7.488 6.947-20.167 0-27.136-7.993-8.007-19.81-8.007-27.803 0zM121.983 305.83c0-10.75-8.34-19.128-19.113-19.128H19.462C8.69 286.702.35 295.08.35 305.83s8.34 19.425 19.112 19.425h83.408c10.773 0 19.113-8.675 19.113-19.425z"/>
</svg>
